<?xml version="1.0" encoding="UTF-8"?><svg xmlns="http://www.w3.org/2000/svg" xmlns:xlink="http://www.w3.org/1999/xlink" version="1.1" id="Layer_1" x="0px" y="0px" viewBox="0 0 100 100" xml:space="preserve"><style type="text/css">.st0{fill:#FFFFFF;} .st1{fill:#B7B7B7;} .st2{fill:#FF9500;} .st3{fill:#1BADF8;} .st4{fill:#63DA38;}</style><path class="st0" d="M80.4 67.3c-3.1 0-5.6 2.5-5.6 5.6 0 3.1 2.5 5.6 5.6 5.6 3.1 0 5.6-2.5 5.6-5.6 0-3.1-2.5-5.6-5.6-5.6zm0 10.5c-2.7 0-4.9-2.2-4.9-4.9s2.2-4.9 4.9-4.9 4.9 2.2 4.9 4.9-2.2 4.9-4.9 4.9z" fill="#FFF"/><path class="st0" d="M80.4 24.5c-3.1 0-5.6 2.5-5.6 5.6 0 3.1 2.5 5.6 5.6 5.6 3.1 0 5.6-2.5 5.6-5.6 0-3.1-2.5-5.6-5.6-5.6zm0 10.5c-2.7 0-4.9-2.2-4.9-4.9s2.2-4.9 4.9-4.9 4.9 2.2 4.9 4.9-2.2 4.9-4.9 4.9z" fill="#FFF"/><path class="st0" d="M80.4 45.9c-3.1 0-5.6 2.5-5.6 5.6s2.5 5.6 5.6 5.6c3.1 0 5.6-2.5 5.6-5.6s-2.5-5.6-5.6-5.6zm0 10.5c-2.7 0-4.9-2.2-4.9-4.9s2.2-4.9 4.9-4.9 4.9 2.2 4.9 4.9-2.2 4.9-4.9 4.9z" fill="#FFF"/><path class="st0" d="M93.5 18c-1.9-5.3-6.1-9.5-11.4-11.4C77.2 5 72.7 5 63.6 5H36.4c-9 0-13.6 0-18.4 1.5C13 8.3 9 12.1 7 17h59.5v.8H6.6v.1C5 22.8 5 27.3 5 36.4v3.1h61.5v.7H5v20.3h61.5v.7H5v2.4c0 9 0 13.6 1.5 18.4.1.3.3.7.4 1h59.6v.8H7.3c2.1 4.4 6 7.9 10.6 9.6C22.8 95 27.3 95 36.4 95h27.2c9 0 13.6 0 18.4-1.5 5.3-1.9 9.5-6.1 11.4-11.4C95 77.2 95 72.7 95 63.6V36.4c0-9 0-13.6-1.5-18.4zM80.4 79.3c-3.5 0-6.4-2.9-6.4-6.4s2.9-6.4 6.4-6.4 6.4 2.9 6.4 6.4-2.9 6.4-6.4 6.4zm0-21.4c-3.5 0-6.4-2.9-6.4-6.4s2.9-6.4 6.4-6.4 6.4 2.9 6.4 6.4-2.9 6.4-6.4 6.4zm0-21.4c-3.5 0-6.4-2.9-6.4-6.4s2.9-6.4 6.4-6.4 6.4 2.9 6.4 6.4-2.9 6.4-6.4 6.4z" fill="#FFF"/><path class="st1" d="M66.5 83.8V83H6.9c.1.3.2.5.3.8h59.3z" fill="#B7B7B7"/><path class="st1" fill="#B7B7B7" d="M66.5 61.2v-.7H5v.7h61.1z"/><path class="st1" fill="#B7B7B7" d="M66.5 40.2v-.7H5v.7h61.1z"/><path class="st1" d="M66.5 17.8V17H7c-.1.3-.2.5-.3.8h59.8z" fill="#B7B7B7"/><ellipse transform="matrix(0.7071 -0.7071 0.7071 0.7071 2.2647 65.6675)" class="st2" cx="80.4" cy="30.1" rx="4.9" ry="4.9" fill="#FF9500"/><path class="st2" d="M80.4 23.7c-3.5 0-6.4 2.9-6.4 6.4s2.9 6.4 6.4 6.4 6.4-2.9 6.4-6.4-2.9-6.4-6.4-6.4zm0 12c-3.1 0-5.6-2.5-5.6-5.6 0-3.1 2.5-5.6 5.6-5.6 3.1 0 5.6 2.5 5.6 5.6 0 3.1-2.5 5.6-5.6 5.6z" fill="#FF9500"/><ellipse transform="matrix(0.3827 -0.9239 0.9239 0.3827 2.0525 106.0718)" class="st3" cx="80.4" cy="51.5" rx="4.9" ry="4.9" fill="#1BADF8"/><path class="st3" d="M80.4 45.1c-3.5 0-6.4 2.9-6.4 6.4s2.9 6.4 6.4 6.4 6.4-2.9 6.4-6.4-2.9-6.4-6.4-6.4zm0 12c-3.1 0-5.6-2.5-5.6-5.6s2.5-5.6 5.6-5.6c3.1 0 5.6 2.5 5.6 5.6s-2.5 5.6-5.6 5.6z" fill="#1BADF8"/><path class="st4" d="M80.4 66.5c-3.5 0-6.4 2.9-6.4 6.4s2.9 6.4 6.4 6.4 6.4-2.9 6.4-6.4-2.9-6.4-6.4-6.4zm0 12c-3.1 0-5.6-2.5-5.6-5.6 0-3.1 2.5-5.6 5.6-5.6 3.1 0 5.6 2.5 5.6 5.6 0 3.1-2.5 5.6-5.6 5.6z" fill="#63DA38"/><ellipse transform="matrix(0.9732 -0.2298 0.2298 0.9732 -14.5981 20.4222)" class="st4" cx="80.4" cy="72.9" rx="4.9" ry="4.9" fill="#63DA38"/><metadata><rdf:RDF xmlns:rdf="http://www.w3.org/1999/02/22-rdf-syntax-ns#" xmlns:rdfs="http://www.w3.org/2000/01/rdf-schema#" xmlns:dc="http://purl.org/dc/elements/1.1/"><rdf:Description about="https://iconscout.com/legal#licenses" dc:title="apple,reminders" dc:description="apple,reminders" dc:publisher="Iconscout" dc:date="2017-10-27" dc:format="image/svg+xml" dc:language="en"><dc:creator><rdf:Bag><rdf:li>Vicons Design</rdf:li></rdf:Bag></dc:creator></rdf:Description></rdf:RDF></metadata></svg>