<svg version="1.1" id="Capa_1" xmlns="http://www.w3.org/2000/svg" xmlns:xlink="http://www.w3.org/1999/xlink" x="0px" y="0px" viewBox="0 0 512 512" style="enable-background:new 0 0 512 512;" xml:space="preserve"> 
	<path d="M407,0H105C47.103,0,0,47.103,0,105v302c0,57.897,47.103,105,105,105h302c57.897,0,105-47.103,105-105V105 C512,47.103,464.897,0,407,0z M482,181H180v30h302v90H180v30h302v76c0,5.136-0.521,10.152-1.509,15H180v30h286.959 c-13.697,18.204-35.475,30-59.959,30H105c-41.355,0-75-33.645-75-75V105c0-41.355,33.645-75,75-75h302 c24.484,0,46.262,11.796,59.959,30H180v30h300.491c0.988,4.848,1.509,9.864,1.509,15V181z"/> </g> </g> <g> <g> <path d="M105,211c-24.813,0-45,20.187-45,45s20.187,45,45,45s45-20.187,45-45S129.813,211,105,211z M105,271 c-8.271,0-15-6.729-15-15s6.729-15,15-15s15,6.729,15,15S113.271,271,105,271z"/> </g> </g> <g> <g> <path d="M105,331c-24.813,0-45,20.187-45,45s20.187,45,45,45s45-20.187,45-45S129.813,331,105,331z M105,391 c-8.271,0-15-6.729-15-15s6.729-15,15-15s15,6.729,15,15S113.271,391,105,391z"/> </g> </g> <g> <g> <path d="M105,91c-24.813,0-45,20.187-45,45s20.187,45,45,45s45-20.187,45-45S129.813,91,105,91z M105,151c-8.271,0-15-6.729-15-15 s6.729-15,15-15s15,6.729,15,15S113.271,151,105,151z"/>
</svg> 